PathFileType	4	(X/Y/Z)	C:/Users/beibeiliu/ov580/test_trc/User3\sequence.26_training_dense_left.trc
DataRate	CameraRate	NumFrames	NumMarkers	Units	OrigDataRate	OrigDataStartFrame	OrigNumFrames
120	120	23	19	mm	120	34	266
Frame#	Time	ThumbCMC			ThumbMCP			ThumbIP			ThumbTip			IndexMCP			IndexPIP			IndexTip			MiddleMCP			MiddlePIP			MiddleTip			RingMCP			RingPIP			RingTip			PinkyMCP			PinkyPIP			PinkyTip			BackHand1			BackHand2			BackHand3	
		X0	Y0	Z0	X1	Y1	Z1	X2	Y2	Z2	X3	Y3	Z3	X4	Y4	Z4	X5	Y5	Z5	X6	Y6	Z6	X7	Y7	Z7	X8	Y8	Z8	X9	Y9	Z9	X10	Y10	Z10	X11	Y11	Z11	X12	Y12	Z12	X13	Y13	Z13	X14	Y14	Z14	X15	Y15	Z15	X16	Y16	Z16	X17	Y17	Z17	X18	Y18	Z18	
33	0.275	-175.849	23.3438	13.1952	-160.508	23.3955	-18.8961	-157.273	10.8374	-50.505	-160.808	-9.67135	-61.2559	-188.907	19.6928	-62.8542	-179.948	19.4659	-89.2947	-166.079	17.0477	-113.412	-183.623	-2.9008	-70.8688	-162.676	-9.31142	-88.3585	-131.261	-15.9558	-97.0214	-171.66	-23.1545	-51.3401	-146.707	-28.9042	-39.17	-144.764	-21.396	-5.01225	-173.522	-42.1774	-41.2972	-153.721	-34.8099	-26.5023	-152.324	-27.5535	1.22148	-219.345	-13.7037	-18.1673	-223.005	-16.4547	12.4472	-212.693	13.0255	0.167236	
34	0.283333	-180.702	21.5712	11.4599	-162.82	24.2634	-19.5098	-160.004	11.9199	-47.7113	-164.789	-11.2023	-62.0209	-191.856	20.4898	-64.0411	-180.408	17.6572	-94.0582	-169.908	14.9576	-112.972	-185.782	-4.20464	-73.5934	-162.043	-11.5785	-90.4189	-127.791	-17.5568	-97.4658	-175.203	-26.332	-52.4631	-145.544	-25.4993	-38.372	-148.083	-19.1601	-4.75007	-179.941	-42.9665	-41.002	-153.868	-34.4913	-26.3749	-155.718	-22.416	-0.255795	-221.327	-16.0831	-19.2176	-225.442	-19.4449	15.2134	-215.806	10.195	-1.71782	
35	0.291667	-181.692	22.132	12.2793	-168.646	22.8508	-22.5305	-165.202	10.9225	-47.8951	-167.908	-11.7528	-62.4071	-196.308	22.4369	-66.0912	-184.095	23.5642	-94.7083	-173.832	18.8793	-113.516	-190.067	-7.57367	-74.1658	-165.18	-8.64948	-90.8424	-132.538	-13.8299	-98.8733	-178.104	-26.5615	-53.2279	-148.461	-26.1044	-38.6217	-150.016	-18.3678	-8.64424	-177.51	-41.5135	-43.9251	-156.057	-33.7086	-27.1015	-158.323	-26.2667	-1.69444	-225.307	-19.1912	-21.4301	-229.117	-21.6888	12.9021	-217.002	9.55526	0.336636	
36	0.3	-184.471	22.0686	11.9453	-172.131	21.9515	-21.5956	-168.08	11.6458	-48.012	-169.524	-9.81689	-68.3473	-200.327	19.985	-65.8269	-192.557	22.2602	-89.5157	-181.388	19.7945	-114.168	-195.286	-3.64631	-72.1201	-172.097	-4.95601	-90.1834	-139.767	-15.6898	-98.5365	-184.023	-24.9291	-53.4148	-155.067	-26.3457	-43.3825	-154.457	-16.7843	-7.21392	-181.76	-38.2541	-44.2835	-161.171	-32.6427	-29.92	-162.184	-25.8433	-0.330191	-227.886	-21.4394	-17.9309	-231.453	-21.229	12.0757	-219.91	9.31771	0.438944	
37	0.308333	-186.482	19.8404	10.5662	-174.132	22.1819	-22.2432	-169.362	13.1731	-47.6808	-172.257	-7.27356	-68.3565	-202.592	23.6072	-68.3569	-195.509	27.7094	-91.5867	-185.453	29.5213	-115.083	-199.009	-3.14445	-70.1969	-175.185	-5.84944	-90.5408	-144.044	-14.6353	-99.5445	-186.988	-24.5996	-54.2047	-155.403	-23.9638	-41.6648	-156.99	-21.665	-6.34494	-190.086	-40.5512	-45.5658	-164.441	-36.7395	-31.3853	-161.485	-25.4109	-6.76676	-229.294	-15.2663	-15.6565	-234.161	-23.6281	13.4241	-221.152	14.429	0.0673247	
38	0.316667	-187.562	18.0236	11.9019	-170.564	23.668	-20.0571	-168.662	14.8333	-50.1163	-173.404	-6.57295	-63.7937	-203.301	27.2346	-62.3747	-194.985	34.1212	-89.7384	-189.484	31.1987	-114.311	-199.101	3.87251	-70.5681	-176.17	-3.87279	-91.4235	-143.285	-14.392	-102.565	-186.227	-19.5519	-55.1104	-157.663	-25.1122	-43.7385	-154.622	-21.9281	-10.7959	-189.307	-36.5956	-46.0365	-165.963	-37.6232	-32.6059	-163.308	-27.9263	-1.50068	-230.218	-16.9003	-16.7245	-233.293	-17.2202	13.2414	-222.089	16.1182	2.00925	
39	0.325	-187.301	16.8061	12.1734	-172.381	20.111	-16.5721	-169.654	12.8103	-51.0885	-176.951	-10.0866	-68.2706	-201.989	28.0429	-66.9185	-196.364	33.4146	-86.5067	-189.301	34.7632	-114.985	-198.298	-0.0930394	-73.9069	-174.864	-4.04557	-92.6102	-147.967	-13.0869	-102.833	-187.098	-18.5503	-55.0213	-158.178	-26.4637	-43.0698	-154.017	-24.8436	-8.76381	-187.889	-37.3081	-46.8003	-165.897	-36.4596	-31.9967	-165.308	-28.0119	-2.96988	-231.54	-12.166	-17.5683	-233.812	-19.6559	12.4943	-220.337	16.2627	4.19028	
40	0.333333	-183.717	20.9895	10.8633	-172.104	20.6134	-20.0687	-169.029	13.3881	-51.0413	-174.531	-8.30542	-69.1018	-202.235	27.2401	-67.314	-194.088	33.5038	-88.7507	-189.899	32.8902	-113.068	-197.512	0.65146	-73.1492	-176.013	-3.09569	-91.8343	-143.326	-8.76585	-103.322	-186.724	-22.3737	-55.0031	-157.78	-27.1178	-44.8115	-152.707	-22.1686	-9.53888	-191.059	-35.9466	-47.0451	-166.542	-38.4067	-32.3227	-161.852	-27.3917	-5.33534	-231.672	-16.2155	-21.4584	-234.018	-18.9331	12.6291	-222.254	13.6979	2.45483	
41	0.341667	-185.117	21.2024	11.4233	-171.001	19.4155	-16.8451	-167.838	11.9171	-53.2302	-175.711	-9.75752	-67.1081	-200.61	28.1826	-64.2511	-194.005	32.7879	-86.514	-188.138	31.8388	-111.834	-196.474	-0.515407	-74.4018	-174.1	-3.161	-92.5322	-143.433	-14.4344	-102.964	-186.785	-24.1502	-55.0565	-157.112	-25.3617	-44.4851	-151.056	-21.415	-11.7641	-187.754	-40.5521	-46.4277	-165.02	-37.1647	-30.8977	-162.648	-28.9232	-0.684037	-230.384	-15.4999	-20.1373	-232.38	-17.3641	12.167	-220.862	14.6229	3.46781	
42	0.35	-186.526	18.6359	8.1242	-170.245	22.6528	-20.1939	-170.947	8.95282	-51.2439	-173.624	-9.45623	-64.874	-200.427	29.1484	-64.6882	-191.561	31.5982	-91.2203	-184.232	32.9076	-117.035	-194.179	-1.47335	-75.295	-172.257	-6.55244	-92.6284	-136.792	-11.9367	-101.593	-185.654	-24.5355	-54.0908	-156.241	-30.273	-41.3168	-150.728	-22.4306	-10.6246	-186.786	-40.9881	-45.4876	-163.766	-36.0887	-30.6269	-161.257	-26.595	-3.44416	-230.264	-16.5695	-18.2587	-232.488	-20.3309	12.8038	-221.531	12.2904	2.18778	
43	0.358333	-186.941	19.6594	9.52429	-173.641	19.3905	-20.0024	-168.124	11.6455	-48.3308	-172.787	-11.3675	-68.0697	-201.091	22.8715	-68.1473	-192.274	31.6028	-88.4838	-185.518	30.9442	-113.102	-196.373	-4.19377	-72.2307	-169.049	-5.03104	-92.9365	-138.441	-14.3411	-98.104	-181.998	-24.2446	-54.8451	-156.531	-28.7372	-44.092	-150.925	-25.0791	-9.16144	-184.882	-38.0729	-46.1382	-163.662	-36.9021	-30.7638	-160.437	-27.8689	-5.27639	-229.791	-16.2612	-21.5457	-234.496	-24.0825	11.9414	-221.798	12.9133	2.13039	
44	0.366667	-189.176	15.5086	11.0177	-171.228	20.5022	-20.8106	-167.836	12.1241	-54.3576	-173.308	-10.2992	-66.0453	-200.212	24.2092	-66.1371	-192.986	28.2244	-88.9583	-184.344	27.9199	-116.287	-195.954	-1.65896	-71.4695	-172.102	-7.47521	-89.9818	-136.145	-13.8482	-96.6801	-181.094	-26.3081	-55.02	-156.15	-29.205	-44.5032	-150.494	-25.0739	-9.3842	-188.597	-40.2776	-45.694	-162.467	-37.0578	-28.3813	-162.405	-23.9296	-2.4309	-229.453	-18.592	-19.943	-233.022	-19.8196	10.9601	-223.111	13.8283	-2.13173	
45	0.375	-187.957	16.8761	8.30064	-172.078	18.0077	-23.0954	-167.141	8.80712	-49.0209	-168.448	-8.34101	-66.2769	-200.142	23.7842	-67.6739	-191.111	28.0705	-92.2367	-183.909	27.6687	-116.504	-193.057	-3.05652	-74.5194	-167.349	-11.2447	-91.5227	-136.44	-15.7877	-96.6437	-183.203	-22.6317	-55.9642	-156.219	-28.2789	-45.0677	-149.985	-23.8685	-8.54233	-183.61	-41.1508	-45.9359	-163.158	-39.6971	-29.304	-160.815	-28.3671	-4.63212	-230.545	-22.4368	-20.1506	-235.103	-20.0377	12.4776	-222.765	11.5432	-0.539307	
46	0.383333	-188.808	19.1407	5.28473	-170.059	19.3814	-22.5075	-166.172	9.2019	-50.3041	-171.063	-13.4257	-66.6109	-200.727	22.1959	-67.6987	-193.957	23.6336	-90.8366	-186.635	20.4431	-117.17	-192.751	-2.59748	-75.3545	-165.887	-9.30281	-92.9483	-136.198	-17.6672	-96.9917	-184.3	-29.3433	-55.4333	-154.427	-28.6393	-45.0447	-148.366	-27.9311	-11.8138	-182.665	-42.2708	-45.9912	-163.936	-38.8172	-33.2125	-162.43	-29.4492	-5.63087	-229.675	-18.594	-22.5492	-234.403	-22.133	11.5712	-222.293	12.3283	-2.29814	
47	0.391667	-187.104	18.9478	6.26533	-172.499	14.7318	-22.1709	-163.801	9.21548	-54.3309	-165.072	-11.3267	-70.2653	-200.056	19.8998	-71.6877	-192.835	22.5726	-91.2183	-188	21.4951	-118.377	-194.101	-5.83799	-73.4272	-168.694	-13.5146	-92.2373	-135.169	-18.2202	-99.4268	-179.475	-29.3229	-55.701	-154.035	-29.8263	-44.7539	-146.144	-27.7196	-11.1142	-185.458	-41.8802	-45.3329	-162.455	-39.5513	-29.2177	-162.646	-27.7117	-2.35734	-228.158	-21.2131	-19.9541	-234.915	-19.4465	7.61911	-223.374	12.4174	-3.57822	
48	0.4	-187.785	17.3428	8.83318	-170.936	14.1004	-20.773	-161.652	8.30373	-53.0297	-167.174	-15.2683	-67.1031	-199.809	18.6803	-70.1589	-194.039	18.3868	-93.6826	-190.032	17.5114	-118.328	-192.359	-9.19669	-73.6991	-165.531	-11.7546	-92.8672	-132.304	-18.8928	-100.843	-181.878	-26.4463	-54.6146	-152.224	-34.8746	-42.1932	-145.15	-23.911	-10.3442	-180.766	-45.0356	-44.4205	-160.143	-38.2657	-27.3191	-160.363	-29.3119	-4.08671	-229.27	-22.6881	-21.2631	-233.916	-21.9199	5.80712	-224.042	7.87265	-3.61763	
49	0.408333	-185.48	19.8364	4.92821	-170.356	14.1967	-20.4695	-161.807	5.99774	-49.9878	-164.255	-15.818	-67.9789	-197.627	17.6613	-72.2896	-191.097	19.597	-96.2094	-187.842	19.2416	-118.423	-189.1	-8.56696	-75.396	-164.926	-15.0589	-91.2723	-131.843	-25.8644	-101.383	-178.642	-29.844	-55.34	-149.762	-32.6377	-41.6739	-142.578	-29.7482	-10.7329	-186.109	-42.3128	-44.8429	-160.949	-38.4469	-30.3421	-158.353	-30.642	0.0291183	-228.349	-20.4688	-24.9893	-232.404	-18.9247	7.17309	-221.907	10.4824	-5.72945	
50	0.416667	-185.266	18.9161	10.3715	-168.057	15.8342	-20.949	-159.678	5.55131	-47.5897	-159.785	-15.5514	-66.8752	-194.268	19.6397	-66.9619	-190.378	16.6862	-95.0759	-185.737	19.8722	-116.73	-186.184	-9.69466	-73.4671	-161.878	-16.1092	-90.6809	-132.688	-25.1891	-99.3765	-178.119	-28.5396	-54.0012	-147.973	-35.46	-39.065	-141.169	-28.5025	-6.96856	-178.999	-44.258	-42.6705	-158.305	-43.4507	-27.485	-155.64	-30.1749	-2.57592	-226.694	-20.5004	-22.7463	-234.436	-21.2407	5.57177	-221.448	10.3346	-6.54994	
51	0.425	-184.154	19.2998	11.564	-163.275	18.196	-17.9734	-157.028	4.44276	-44.9567	-158.07	-18.712	-64.5075	-191.346	17.0713	-68.6117	-184.3	18.1849	-93.112	-179.823	17.2184	-118.906	-181.92	-9.28996	-71.7167	-158.838	-12.2138	-87.1467	-122.615	-25.965	-96.4097	-172.7	-26.9162	-51.9856	-144.118	-31.5872	-37.1345	-139.675	-30.7858	-6.46585	-177.948	-47.4696	-40.6076	-154.371	-40.1495	-22.8427	-156.855	-27.1434	0.333137	-222.572	-20.0734	-23.9607	-232.031	-23.7437	6.79003	-219.625	12.2208	-7.26421	
52	0.433333	-187.527	16.8955	10.0573	-166.017	17.3286	-13.244	-154.533	5.4246	-47.7586	-154.068	-17.6053	-59.5104	-188.304	13.6348	-66.0866	-179.491	15.3583	-90.0887	-171.334	14.4194	-115.8	-174.417	-12.046	-72.1271	-151.385	-11.9365	-83.3864	-115.572	-17.7176	-87.5887	-170.126	-31.8845	-47.1989	-141.058	-30.7364	-32.8259	-138.231	-27.261	0.344484	-171.68	-46.7744	-36.4247	-150.874	-38.5814	-17.7283	-154.522	-27.2749	10.2452	-218.103	-22.4356	-24.0638	-232.777	-25.8401	8.53994	-218.335	10.3618	-9.1519	
53	0.441667	-187.299	20.1734	13.8699	-164.277	18.8094	-15.5133	-149.601	7.13886	-42.3458	-147.689	-15.1964	-52.605	-183.63	13.7951	-63.8626	-171.955	16.0439	-88.6218	-163.249	16.8543	-109.51	-167.211	-7.22627	-68.0209	-139.783	-11.6027	-78.5429	-106.916	-16.7612	-77.4196	-161.504	-25.5756	-44.3961	-137.482	-29.0165	-27.1173	-135.201	-21.2751	3.27126	-166.372	-42.6425	-33.9038	-146.786	-33.916	-14.3436	-152.304	-22.9802	11.401	-218.327	-26.7003	-20.978	-229.788	-25.3886	6.23335	-217.215	10.3541	-9.6568	
54	0.45	-188.092	21.8666	9.52517	-164.112	20.4326	-10.3869	-145.892	9.71217	-36.5434	-140.711	-12.6335	-46.7459	-178.384	12.9079	-63.8297	-165.222	15.2861	-89.6676	-155.789	15.6158	-107.65	-162.142	-11.4723	-63.4827	-130.919	-8.80494	-71.1799	-97.4734	-9.86791	-68.1366	-156.581	-28.4024	-38.7091	-131.568	-26.3109	-17.6001	-134.989	-15.4439	10.1843	-156.898	-40.5717	-27.7209	-142.65	-30.5375	-7.53644	-155.256	-17.6836	14.742	-212.074	-28.0921	-22.8451	-225.34	-29.0307	7.59749	-214.898	8.06108	-8.7725	
55	0.458333	-189.618	21.6606	10.6223	-161.829	23.7613	-11.1896	-144.236	11.2737	-31.244	-131.21	-8.61528	-45.2315	-175.308	12.6947	-61.5123	-160.418	15.2856	-85.3364	-149.647	15.8868	-107.126	-155.826	-6.55101	-60.313	-125.037	-3.1526	-66.5507	-94.8964	-4.84737	-60.6344	-152.652	-21.6212	-36.805	-126.401	-17.8889	-11.5221	-132.802	-8.73868	15.55	-151.451	-38.7342	-23.9726	-138.931	-25.0956	-5.13077	-157.599	-13.7888	21.0125	-206.183	-25.488	-21.797	-222.176	-25.7985	3.64184	-217.192	6.25032	-9.29478	
